<?xml version="1.0" encoding="UTF-8"?>
<svg width="280px" height="79px" viewBox="0 0 280 79" version="1.1" xmlns="http://www.w3.org/2000/svg" xmlns:xlink="http://www.w3.org/1999/xlink" xmlns:sketch="http://www.bohemiancoding.com/sketch/ns">
    <!-- Generator: Sketch 3.4.2 (15855) - http://www.bohemiancoding.com/sketch -->
    <title>dongkap transparent</title>
    <desc>Created with Sketch.</desc>
    <defs></defs>
    <g id="Page-1" stroke="none" stroke-width="1" fill="none" fill-rule="evenodd" sketch:type="MSPage">
        <g id="dongkap-transparent" sketch:type="MSLayerGroup" transform="translate(11.000000, 0.000000)">
            <g id="p" transform="translate(244.500000, 50.000000) scale(-1, -1) translate(-244.500000, -50.000000) translate(231.500000, 21.000000)" fill="#4DFB9B" sketch:type="MSShapeGroup">
                <ellipse id="Rectangle-79" cx="19.3194444" cy="6.73214286" rx="6.68055556" ry="6.73214286"></ellipse>
                <path d="M12.6388889,22.7857143 L12.6388889,39.0119048 L25.9992376,39.0119048 C25.9997455,39.0693833 26,39.1269233 26,39.1845238 C26,49.5760244 17.7172679,58 7.5,58 C-2.71726787,58 -11,49.5760244 -11,39.1845238 C-11,30.5403658 -5.26857672,23.2576809 2.5401427,21.0529095 C3.21208841,20.8240361 3.93194223,20.6999512 4.68055556,20.6999512 C8.37012451,20.6999512 11.3611111,23.7140342 11.3611111,27.432094 C11.3611111,30.6949792 9.05762654,33.4157023 6,34.0329566 L6,34.0428208 C3.70088664,34.6261789 2,36.7094602 2,39.1900048 C2,42.1226368 4.37736795,44.5000048 7.30999994,44.5000048 C10.2426319,44.5000048 12.6199999,42.1226368 12.6199999,39.1900048 C12.6199999,39.1297669 12.6189968,39.0697633 12.6170065,39.0100098 L12.6300049,39.0100098 L12.6300005,21.1018479 C12.6329636,21.1027158 12.6359264,21.1035845 12.6388889,21.104454 L12.6388889,6.55952381 L26,6.55952381 L26,39.0119048 L26,6.55952381 L12.6388889,6.55952381 L12.6388889,22.7857143 L12.6388889,6.55952381 L26,6.55952381 L26,39.0119048 L12.6388889,39.0119048 L12.6388889,22.7857143 Z" id="Rectangle-79"></path>
            </g>
            <g id="a" transform="translate(209.299988, 39.500000) scale(1, -1) translate(-209.299988, -39.500000) translate(190.799988, 20.000000)" fill="#4DFB9B" sketch:type="MSShapeGroup">
                <ellipse id="Rectangle-79" cx="30.3194444" cy="7.66788156" rx="6.68055556" ry="6.73214286"></ellipse>
                <path d="M23.6170065,19.0100098 L23.6300049,19.0100098 L23.6300021,7.70001221 L37,7.70001221 L37,19.0119048 C36.9997455,19.0693833 37,19.1269233 37,19.1845238 C37,29.5760244 28.7172679,38 18.5,38 C8.28273213,38 0,29.5760244 0,19.1845238 C0,10.5403658 5.73142328,3.25768095 13.5401427,1.05290951 C14.2120884,0.824036107 14.9319422,0.699951172 15.6805556,0.699951172 C19.3701245,0.699951172 22.3611111,3.7140342 22.3611111,7.43209403 C22.3611111,10.6949792 20.0576265,13.4157023 17,14.0329566 L17,14.0428208 C14.7008866,14.6261789 13,16.7094602 13,19.1900048 C13,22.1226368 15.377368,24.5000048 18.3099999,24.5000048 C21.2426319,24.5000048 23.6199999,22.1226368 23.6199999,19.1900048 C23.6199999,19.1297669 23.6189968,19.0697633 23.6170065,19.0100098 Z" id="Rectangle-79"></path>
            </g>
            <g id="k" transform="translate(168.500000, 34.000000) scale(-1, 1) translate(-168.500000, -34.000000) translate(148.000000, 8.000000)" fill="#4DFB9B" sketch:type="MSShapeGroup">
                <path d="M7.50066611,37.428709 L7.5004651,37.4502218 C7.23176686,37.4170848 6.95813827,37.4000244 6.68055556,37.4000244 C2.9909866,37.4000244 -3.01980663e-14,40.4141074 -3.01980663e-14,44.1321673 C-3.01980663e-14,47.6201293 2.63223843,50.4885518 6.0041218,50.8302264 C6.82039797,50.9421852 7.6535605,51 8.5,51 C18.7172679,51 27,42.5760244 27,32.1845238 C27,21.7930232 18.7172679,13.3690476 8.5,13.3690476 C7.69315532,13.3690476 6.89837453,13.42158 6.11878381,13.5234654 C2.69210218,13.8109692 -3.01980663e-14,16.7047412 -3.01980663e-14,20.2321429 C-3.01980663e-14,23.9502027 2.9909866,26.9642857 6.68055556,26.9642857 C6.99215672,26.9642857 7.2987752,26.9427875 7.59903007,26.9011827 L7.59888041,26.9172003 C7.83149101,26.8860678 8.06886849,26.8699951 8.30999994,26.8699951 C11.2426319,26.8699951 13.6199999,29.2473631 13.6199999,32.1799951 C13.6199999,35.112627 11.2426319,37.489995 8.30999994,37.489995 C8.0348317,37.489995 7.76455202,37.4690646 7.50066611,37.428709 Z M40.3978711,6.55952381 C40.3070032,2.9212393 37.3517679,0 33.7194689,0 C30.0871698,0 27.1319345,2.9212393 27.0410666,6.55952381 L27.0389133,6.55952381 L27.0389133,45 L27.0441045,45 C27.1836482,48.5938908 30.1189188,51.4642857 33.7194689,51.4642857 C37.3200189,51.4642857 40.2552896,48.5938908 40.3948333,45 L40.4000244,45 L40.4000244,6.55952381 L40.3978711,6.55952381 Z" id="Rectangle-79"></path>
            </g>
            <g id="g" transform="translate(127.000000, 48.799988) scale(1, -1) translate(-127.000000, -48.799988) translate(108.500000, 20.799988)" fill="#FFFFFF" sketch:type="MSShapeGroup">
                <path d="M23.6170065,37.0100098 L23.6199951,37.0100098 L23.6297876,30.7000122 L23.6298116,30.6845494 L23.6300049,30.5599976 L23.6282546,30.5599976 L23.5,20.2999878 C23.5,20.2999878 23.5,16.7999878 20.5,15.2999878 C18.4774574,14.2887165 14.2664439,14.4563537 13.9758757,14.4692426 L13.9754379,14.4632412 C13.6253399,14.5203203 13.2661227,14.5499878 12.9000244,14.5499878 C9.21095731,14.5499878 6.2199707,11.5359048 6.2199707,7.81784494 C6.2199707,4.0997851 9.21095731,1.08570208 12.9005263,1.08996582 C12.9337564,1.08992742 12.9669299,1.09013386 13.000045,1.09058345 C13,1.08996582 37,-2.70001221 37,18.2999878 C37,20.7979222 37,37.0119048 37,37.0119048 C36.9997455,37.0693833 37,37.1269233 37,37.1845238 C37,47.5760244 28.7172679,56 18.5,56 C8.28273213,56 0,47.5760244 0,37.1845238 C0,28.5403658 5.73142328,21.2576809 13.5401427,19.0529095 C14.2120884,18.8240361 14.9319422,18.6999512 15.6805556,18.6999512 C19.3701245,18.6999512 22.3611111,21.7140342 22.3611111,25.432094 C22.3611111,28.6949792 20.0576265,31.4157023 17,32.0329566 L17,32.0428208 C14.7008866,32.6261789 13,34.7094602 13,37.1900048 C13,40.1226368 15.377368,42.5000048 18.3099999,42.5000048 C21.2426319,42.5000048 23.6199999,40.1226368 23.6199999,37.1900048 C23.6199999,37.1297669 23.6189968,37.0697633 23.6170065,37.0100098 Z" id="Rectangle-79"></path>
            </g>
            <g id="n" transform="translate(87.000000, 39.500000) scale(1, -1) translate(-87.000000, -39.500000) translate(68.500000, 21.000000)" fill="#FFFFFF" sketch:type="MSShapeGroup">
                <path d="M13.4011843,18.0999756 L13.4000244,18.0999756 L13.4000244,7.6594994 L13.3711209,7.6594994 L13.3711209,7 L13.3609149,7 C13.3610456,6.98263218 13.3611111,6.96524871 13.3611111,6.94784982 C13.3611111,3.22978999 10.3701245,0.215706961 6.68055556,0.215706961 C2.9909866,0.215706961 0,3.22978999 0,6.94784982 C0,7.07256789 0.00336542945,7.19649385 0.0100097656,7.31954052 L0.0100097656,17.559655 C0.00335383025,17.7671128 0,17.97542 0,18.1845238 C0,28.5760244 8.28273213,37 18.5,37 C28.7172679,37 37,28.5760244 37,18.1845238 C37,18.1269233 36.9997455,18.0693833 36.9992376,18.0119048 L37,7 C36.9999345,6.98263218 37,6.96524871 37,6.94784982 C37,3.22978999 34.0090134,0.215706961 30.3194444,0.215706961 C26.6298755,0.215706961 23.6388889,3.22978999 23.6388889,6.94784982 C23.6388889,6.96524871 23.6389544,6.98263218 23.6390851,7 L23.6388889,7.6594994 L23.63002,7.6594994 L23.630024,18.0999756 L23.6188648,18.0999756 C23.5603526,20.8713737 21.2954509,23.1000051 18.5100245,23.1000051 C15.7245982,23.1000051 13.4596965,20.8713737 13.4011843,18.0999756 Z" id="Rectangle-79"></path>
            </g>
            <g id="o" transform="translate(29.000000, 4.000000)" sketch:type="MSShapeGroup">
                <ellipse id="Rectangle-79-Copy" fill="#4DFB9B" cx="30.3194444" cy="20.3321795" rx="6.68055556" ry="6.73214286"></ellipse>
                <path d="M23.6424569,35.0100098 L23.6170065,35.0100098 C23.6189968,35.0697633 23.6199999,35.1297669 23.6199999,35.1900048 C23.6199999,35.2267357 23.6196269,35.2633795 23.6188846,35.2999327 L23.6388918,35.2384783 C23.6388983,35.2456235 23.6389159,35.2527662 23.6389445,35.2599063 L23.1866082,40.8264546 L22.9407512,39.4822677 L22.7017638,38.1756395 C21.7460834,39.5786884 20.1356341,40.5000048 18.3099999,40.5000048 C15.377368,40.5000048 13,38.1226368 13,35.1900048 C13,33.6836797 13.6272183,32.3238493 14.6347346,31.3574337 L11.5800171,31.249644 L17.0800171,30.0100098 L17.0614424,30.0202487 C20.088433,29.3791689 22.3611111,26.6730871 22.3611111,23.432094 C22.3611111,19.7140342 19.3701245,16.6999512 15.6805556,16.6999512 C14.9319422,16.6999512 14.2120884,16.8240361 13.5401427,17.0529095 C5.73142328,19.2576809 0,26.5403658 0,35.1845238 C0,45.5760244 8.28273213,54 18.5,54 C28.6786745,54 36.9374002,45.6395435 36.9996458,35.3021938 C36.9998817,35.2788717 37,35.2555212 37,35.2321429 C37,35.2262174 36.9999924,35.2202937 36.9999772,35.2143717 C36.9999924,35.2044242 37,35.1944749 37,35.1845238 C37,35.1269233 36.9997455,35.0693833 36.9992376,35.0119048 L37,15.5595238 L30.9999928,15.5595238 L33.9999892,15.5595238 L37,15.5595238 L37,29 L37,35.0100098 L36.996432,35.0100098 C36.8801285,31.3947719 33.9352511,28.5 30.3194444,28.5 C26.7036378,28.5 23.7587604,31.3947719 23.6424569,35.0100098 Z" id="Rectangle-79" fill="#FFFFFF"></path>
            </g>
            <g id="d" fill="#FFFFFF" sketch:type="MSShapeGroup">
                <ellipse id="Rectangle-79" cx="19.3194444" cy="6.73214286" rx="6.68055556" ry="6.73214286"></ellipse>
                <path d="M12.6388889,22.7857143 L12.6388889,39.0119048 L25.9992376,39.0119048 C25.9997455,39.0693833 26,39.1269233 26,39.1845238 C26,49.5760244 17.7172679,58 7.5,58 C-2.71726787,58 -11,49.5760244 -11,39.1845238 C-11,30.5403658 -5.26857672,23.2576809 2.5401427,21.0529095 C3.21208841,20.8240361 3.93194223,20.6999512 4.68055556,20.6999512 C8.37012451,20.6999512 11.3611111,23.7140342 11.3611111,27.432094 C11.3611111,30.6949792 9.05762654,33.4157023 6,34.0329566 L6,34.0428208 C3.70088664,34.6261789 2,36.7094602 2,39.1900048 C2,42.1226368 4.37736795,44.5000048 7.30999994,44.5000048 C10.2426319,44.5000048 12.6199999,42.1226368 12.6199999,39.1900048 C12.6199999,39.1297669 12.6189968,39.0697633 12.6170065,39.0100098 L12.6300049,39.0100098 L12.6300005,21.1018479 C12.6329636,21.1027158 12.6359264,21.1035845 12.6388889,21.104454 L12.6388889,6.55952381 L26,6.55952381 L26,39.0119048 L26,6.55952381 L12.6388889,6.55952381 L12.6388889,22.7857143 L12.6388889,6.55952381 L26,6.55952381 L26,39.0119048 L12.6388889,39.0119048 L12.6388889,22.7857143 Z" id="Rectangle-79"></path>
            </g>
        </g>
    </g>
</svg>