<?xml version="1.0" encoding="UTF-8"?>
<svg width="37px" height="41px" viewBox="0 0 37 41" version="1.1" xmlns="http://www.w3.org/2000/svg" xmlns:xlink="http://www.w3.org/1999/xlink" xmlns:sketch="http://www.bohemiancoding.com/sketch/ns">
    <!-- Generator: Sketch 3.4.2 (15855) - http://www.bohemiancoding.com/sketch -->
    <title>Logo Transparent</title>
    <desc>Created with Sketch.</desc>
    <defs></defs>
    <g id="Page-1" stroke="none" stroke-width="1" fill="none" fill-rule="evenodd" sketch:type="MSPage">
        <g id="Logo-Transparent" sketch:type="MSLayerGroup" fill="#FFFFFF">
            <path d="M35.0310616,2.55952381 L37,2.55952381 L37,22.0119048 C36.9997455,22.0693833 37,22.1269233 37,22.1845238 C37,22.1944749 36.9999924,22.2044242 36.9999772,22.2143717 C36.9999924,22.2202937 37,22.2262174 37,22.2321429 C37,22.2555212 36.9998817,22.2788717 36.9996458,22.3021938 C36.9374002,32.6395435 28.6786745,41 18.5,41 C8.28273213,41 0,32.5760244 0,22.1845238 C0,13.5403658 5.73142328,6.25768095 13.5401427,4.05290951 C14.2120884,3.82403611 14.9319422,3.69995117 15.6805556,3.69995117 C19.3701245,3.69995117 22.3611111,6.7140342 22.3611111,10.432094 C22.3611111,13.6730871 20.088433,16.3791689 17.0614424,17.0202487 L17.0800171,17.0100098 L11.5800171,18.249644 L14.6347346,18.3574337 C13.6272183,19.3238493 13,20.6836797 13,22.1900048 C13,25.1226368 15.377368,27.5000048 18.3099999,27.5000048 C20.1356341,27.5000048 21.7460834,26.5786884 22.7017638,25.1756395 L22.9407512,26.4822677 L23.1866082,27.8264546 L23.6389445,22.2599063 C23.6389159,22.2527662 23.6388983,22.2456235 23.6388918,22.2384783 L23.6188846,22.2999327 C23.6196269,22.2633795 23.6199999,22.2267357 23.6199999,22.1900048 C23.6199999,22.1297669 23.6189968,22.0697633 23.6170065,22.0100098 L23.6424569,22.0100098 C23.7587604,18.3947719 26.7036378,15.5 30.3194444,15.5 C33.9352511,15.5 36.8801285,18.3947719 36.996432,22.0100098 L37,22.0100098 L36.9999956,16 L37,2.55952381 L35.0310616,2.55952381 C33.8230991,1.34848273 32.1580065,0.600036621 30.3194444,0.600036621 C26.6298755,0.600036621 23.6388889,3.61411964 23.6388889,7.33217948 C23.6388889,11.0502393 26.6298755,14.0643223 30.3194444,14.0643223 C34.0090134,14.0643223 37,11.0502393 37,7.33217948 C37,5.46687909 36.2472006,3.77876217 35.0310616,2.55952381 Z" id="Rectangle-79" sketch:type="MSShapeGroup"></path>
        </g>
    </g>
</svg>